<svg width="1000" height="1000" viewBox="0 0 1000 1000" fill="none" xmlns="http://www.w3.org/2000/svg">
<path fill-rule="evenodd" clip-rule="evenodd" d="M249.002 158C200.102 158 163.919 200.819 165.539 247.255C167.094 291.867 165.074 349.647 150.535 396.766C135.945 444.018 111.286 473.961 71 477.804V521.196C111.286 525.047 135.945 554.975 150.534 602.234C165.074 649.353 167.093 707.133 165.538 751.745C163.918 798.174 200.101 841 249.008 841H750.064C798.963 841 835.139 798.181 833.519 751.745C831.964 707.133 833.984 649.353 848.523 602.234C863.114 554.975 887.713 525.036 928 521.196V477.804C887.714 473.953 863.116 444.025 848.523 396.766C833.983 349.654 831.964 291.867 833.519 247.255C835.139 200.826 798.963 158 750.064 158H248.995H249.002ZM652.018 578.431C652.018 642.372 604.345 681.15 525.232 681.15H390.559C386.706 681.15 383.012 679.619 380.288 676.893C377.564 674.168 376.033 670.472 376.033 666.618V332.384C376.033 328.53 377.564 324.833 380.288 322.108C383.012 319.383 386.706 317.852 390.559 317.852H524.465C590.432 317.852 633.726 353.601 633.726 408.487C633.726 447.01 604.601 481.498 567.498 487.54V489.55C618.007 495.093 652.018 530.091 652.018 578.431ZM510.547 363.918H433.759V472.43H498.434C548.431 472.43 575.999 452.289 575.999 416.287C575.994 382.547 552.293 363.918 510.547 363.918ZM433.759 515.485V635.069H513.373C565.429 635.069 593.002 614.172 593.002 574.9C593.002 535.627 564.655 515.479 510.025 515.479H433.759V515.485Z" fill="#7952B3"/>
</svg>
