<svg width="1000" height="1000" viewBox="0 0 1000 1000" fill="none" xmlns="http://www.w3.org/2000/svg">
<g clip-path="url(#clip0_1_71)">
<path d="M375.775 871C444.071 871 499.5 815.522 499.5 747.166V623.333H375.775C307.479 623.333 252.05 678.81 252.05 747.166C252.05 815.522 307.479 871 375.775 871Z" fill="#0ACF83"/>
<path d="M252.05 499.5C252.05 431.144 307.479 375.667 375.775 375.667H499.5V623.334H375.775C307.479 623.334 252.05 567.856 252.05 499.5Z" fill="#A259FF"/>
<path d="M252.05 251.833C252.05 183.477 307.479 128 375.775 128H499.5V375.667H375.775C307.479 375.667 252.05 320.189 252.05 251.833Z" fill="#F24E1E"/>
<path d="M499.5 128H623.225C691.522 128 746.95 183.477 746.95 251.833C746.95 320.189 691.522 375.667 623.225 375.667H499.5V128Z" fill="#FF7262"/>
<path d="M746.95 499.5C746.95 567.856 691.522 623.334 623.225 623.334C554.929 623.334 499.5 567.856 499.5 499.5C499.5 431.144 554.929 375.667 623.225 375.667C691.522 375.667 746.95 431.144 746.95 499.5Z" fill="#1ABCFE"/>
</g>
<defs>
<clipPath id="clip0_1_71">
<rect width="495" height="743" fill="white" transform="translate(252 128)"/>
</clipPath>
</defs>
</svg>
