<svg width="1000" height="1000" viewBox="0 0 1000 1000" fill="none" xmlns="http://www.w3.org/2000/svg">
<path d="M226.297 747.333L321.938 135.337C323.107 127.832 328.945 121.915 336.434 120.643C343.923 119.371 351.385 123.031 354.966 129.73L453.876 314.211L493.301 239.146C496.354 233.342 502.373 229.708 508.932 229.708C515.491 229.708 521.509 233.342 524.563 239.146L791.484 747.331L226.297 747.333Z" fill="#FFA000"/>
<path d="M556.713 508.937L453.831 314.123L226.298 747.333L556.713 508.937Z" fill="#F57C00"/>
<path d="M791.488 747.333L718.234 294.032C717.127 287.523 712.482 282.175 706.19 280.159C699.899 278.144 693.013 279.821 688.341 284.488L226.298 747.326L481.958 890.699C498.013 899.663 517.565 899.663 533.62 890.699L791.488 747.326V747.333Z" fill="#FFCA28"/>
<path d="M718.234 294.032C717.127 287.522 712.481 282.175 706.19 280.159C699.898 278.143 693.013 279.821 688.341 284.488L596.636 376.426L524.524 239.143C521.47 233.339 515.451 229.705 508.892 229.705C502.333 229.705 496.315 233.339 493.261 239.143L453.836 314.208L354.922 129.729C351.335 123.029 343.863 119.375 336.365 120.656C328.868 121.938 323.05 127.87 321.894 135.381L226.297 747.332H225.989L226.297 747.686L228.814 748.922L688.207 288.998C692.877 284.306 699.78 282.619 706.088 284.629C712.396 286.638 717.05 292.007 718.145 298.535L790.781 747.773L791.488 747.331L718.234 294.032ZM227.136 746.493L321.938 139.709C323.093 132.197 328.925 126.266 336.416 124.984C343.907 123.702 351.38 127.356 354.972 134.057L453.876 318.538L493.301 243.474C496.354 237.67 502.373 234.035 508.932 234.035C515.491 234.035 521.509 237.67 524.563 243.474L595.212 377.839L227.136 746.493Z" fill="white" fill-opacity="0.2"/>
<path opacity="0.2" d="M533.62 886.378C517.565 895.342 498.013 895.342 481.958 886.378L226.916 743.403L226.297 747.334L481.958 890.663C498.012 899.627 517.565 899.627 533.619 890.663L791.487 747.334L790.825 743.271L533.62 886.378Z" fill="#A52714"/>
<path d="M717.502 294.125C716.399 287.618 711.769 282.268 705.5 280.264C699.231 278.26 692.369 279.926 687.713 284.592L596.323 376.484L524.469 239.264C521.426 233.462 515.428 229.829 508.893 229.829C502.358 229.829 496.36 233.462 493.317 239.264L454.024 314.296L355.461 129.894C351.887 123.197 344.441 119.543 336.976 120.825C329.511 122.108 323.7 128.035 322.549 135.544L227.286 747.227L482.053 890.493C498.051 899.453 517.535 899.453 533.534 890.493L790.5 747.227L717.502 294.124V294.125Z" fill="url(#paint0_linear_1_152)"/>
<defs>
<linearGradient id="paint0_linear_1_152" x1="-1738.33" y1="13339" x2="68545.8" y2="50413" gradientUnits="userSpaceOnUse">
<stop stop-color="white" stop-opacity="0.1"/>
<stop offset="0.14" stop-color="white" stop-opacity="0.08"/>
<stop offset="0.61" stop-color="white" stop-opacity="0.02"/>
<stop offset="1" stop-color="white" stop-opacity="0"/>
</linearGradient>
</defs>
</svg>
