<svg width="776" height="776" viewBox="0 0 776 776" fill="none" xmlns="http://www.w3.org/2000/svg">
<mask id="mask0_11_28" style="mask-type:luminance" maskUnits="userSpaceOnUse" x="0" y="0" width="776" height="776">
<path d="M776 0H0V776H776V0Z" fill="white"/>
</mask>
<g mask="url(#mask0_11_28)">
<mask id="mask1_11_28" style="mask-type:luminance" maskUnits="userSpaceOnUse" x="0" y="0" width="776" height="776">
<path d="M776 0H0V776H776V0Z" fill="white"/>
</mask>
<g mask="url(#mask1_11_28)">
<path d="M388 16.167C173.63 16.167 0 186.887 0 397.441C0 565.93 111.162 708.811 265.295 759.187C284.695 762.776 291.808 750.974 291.808 740.854C291.808 731.8 291.485 707.809 291.323 676.025C183.395 699.014 160.632 624.874 160.632 624.874C142.978 580.868 117.467 569.099 117.467 569.099C82.321 545.463 120.183 545.948 120.183 545.948C159.145 548.6 179.612 585.233 179.612 585.233C214.208 643.53 270.436 626.685 292.617 616.952C296.109 592.282 306.1 575.501 317.19 565.963C231.022 556.424 140.456 523.638 140.456 377.556C140.456 335.943 155.491 301.929 180.388 275.254C176.023 265.618 162.928 226.851 183.783 174.341C183.783 174.341 216.278 164.124 290.483 213.432C321.523 204.961 354.503 200.758 387.483 200.564C420.463 200.758 453.443 204.961 484.483 213.432C558.203 164.124 590.698 174.341 590.698 174.341C611.553 226.851 598.458 265.618 594.578 275.254C619.313 301.929 634.348 335.943 634.348 377.556C634.348 524.026 543.653 556.263 457.323 565.639C470.903 577.085 483.513 600.462 483.513 636.191C483.513 687.213 483.028 728.211 483.028 740.595C483.028 750.586 489.818 762.517 509.703 758.702C664.935 708.65 776 565.672 776 397.441C776 186.887 602.273 16.167 388 16.167Z" fill="#040000"/>
</g>
</g>
</svg>
