<svg width="1000" height="1000" viewBox="0 0 1000 1000" fill="none" xmlns="http://www.w3.org/2000/svg">
<g clip-path="url(#clip0_1_92)">
<mask id="mask0_1_92" style="mask-type:luminance" maskUnits="userSpaceOnUse" x="112" y="112" width="776" height="776">
<path d="M888 112H112V888H888V112Z" fill="white"/>
</mask>
<g mask="url(#mask0_1_92)">
<path d="M500 128.167C285.63 128.167 112 298.887 112 509.441C112 677.93 223.162 820.811 377.295 871.187C396.695 874.776 403.808 862.974 403.808 852.854C403.808 843.8 403.485 819.809 403.323 788.025C295.395 811.014 272.632 736.874 272.632 736.874C254.978 692.868 229.467 681.099 229.467 681.099C194.321 657.463 232.183 657.948 232.183 657.948C271.145 660.6 291.612 697.233 291.612 697.233C326.208 755.53 382.436 738.685 404.617 728.952C408.109 704.282 418.1 687.501 429.19 677.963C343.022 668.424 252.456 635.638 252.456 489.556C252.456 447.943 267.491 413.929 292.388 387.254C288.023 377.618 274.928 338.851 295.783 286.341C295.783 286.341 328.278 276.124 402.483 325.432C433.523 316.961 466.503 312.758 499.483 312.564C532.463 312.758 565.443 316.961 596.483 325.432C670.203 276.124 702.698 286.341 702.698 286.341C723.553 338.851 710.458 377.618 706.578 387.254C731.313 413.929 746.348 447.943 746.348 489.556C746.348 636.026 655.653 668.263 569.323 677.639C582.903 689.085 595.513 712.462 595.513 748.191C595.513 799.213 595.028 840.211 595.028 852.595C595.028 862.586 601.818 874.517 621.703 870.702C776.935 820.65 888 677.672 888 509.441C888 298.887 714.273 128.167 500 128.167Z" fill="white"/>
</g>
</g>
<defs>
<clipPath id="clip0_1_92">
<rect width="776" height="776" fill="white" transform="translate(112 112)"/>
</clipPath>
</defs>
</svg>
