<svg width="1000" height="1000" viewBox="0 0 1000 1000" fill="none" xmlns="http://www.w3.org/2000/svg">
<g clip-path="url(#clip0_1_79)">
<path d="M145 230C145 183.056 183.056 145 230 145H770C816.944 145 855 183.056 855 230V770C855 816.944 816.944 855 770 855H230C183.056 855 145 816.944 145 770V230Z" fill="#F0DB4F"/>
<path d="M796.891 685.667C791.694 653.271 770.569 626.072 708.006 600.696C686.274 590.707 662.045 583.554 654.823 567.086C652.259 557.502 651.921 552.103 653.541 546.299C658.198 527.469 680.672 521.597 698.49 526.996C709.963 530.843 720.829 539.685 727.376 553.79C758.016 533.949 757.949 534.083 779.343 520.451C771.514 508.302 767.33 502.7 762.201 497.504C743.776 476.919 718.669 466.323 678.512 467.133C671.561 468.01 664.543 468.955 657.59 469.833C637.546 474.894 618.446 485.423 607.242 499.528C573.632 537.661 583.216 604.408 624.115 631.877C664.407 662.113 723.596 668.997 731.155 697.276C738.511 731.898 705.712 743.101 673.113 739.12C649.087 734.125 635.724 721.91 621.281 699.705C594.69 715.093 594.69 715.093 567.356 730.818C573.835 744.991 580.651 751.403 591.518 763.686C642.946 815.856 771.649 813.292 794.732 734.328C795.676 731.628 801.886 713.54 796.891 685.667ZM530.978 471.317H464.568C464.568 528.684 464.298 585.646 464.298 643.013C464.298 679.525 466.188 713 460.249 723.259C450.53 743.438 425.356 740.941 413.883 737.026C402.207 731.289 396.268 723.123 389.384 711.583C387.494 708.276 386.077 705.711 385.604 705.509C367.584 716.51 349.631 727.578 331.611 738.579C340.588 757.004 353.816 772.999 370.756 783.392C396.065 798.577 430.08 803.234 465.648 795.068C488.797 788.319 508.774 774.349 519.235 753.09C534.353 725.216 531.113 691.471 530.978 654.149C531.316 593.272 530.978 532.396 530.978 471.317Z" fill="#323330"/>
</g>
<defs>
<clipPath id="clip0_1_79">
<rect width="710" height="710" fill="white" transform="translate(145 145)"/>
</clipPath>
</defs>
</svg>
