<svg width="443" height="443" viewBox="0 0 443 443" fill="none" xmlns="http://www.w3.org/2000/svg">
<g clip-path="url(#clip0_1_221)">
<path d="M221.5 443C343.831 443 443 343.831 443 221.5C443 99.1689 343.831 0 221.5 0C99.1689 0 0 99.1689 0 221.5C0 343.831 99.1689 443 221.5 443Z" fill="white"/>
<path d="M145.855 217.965C136.708 214.862 129.93 210.207 125.52 204C121.11 197.793 118.905 189.3 118.905 178.52C118.905 163.493 124.622 151.488 136.055 142.505C147.488 133.358 159.085 128.785 170.845 128.785C182.768 128.785 193.222 131.48 202.205 136.87C211.352 142.097 215.925 149.283 215.925 158.43C215.925 163.983 214.21 168.23 210.78 171.17C207.35 174.11 203.185 175.58 198.285 175.58C193.548 175.58 189.71 174.273 186.77 171.66C183.993 168.883 182.605 166.352 182.605 164.065C182.605 161.615 183.013 160.39 183.83 160.39C184.81 160.39 185.627 160.962 186.28 162.105C186.933 163.085 187.505 164.228 187.995 165.535C189.302 168.965 192.078 170.68 196.325 170.68C200.735 170.68 204.165 169.618 206.615 167.495C209.228 165.372 210.535 162.35 210.535 158.43C210.535 151.243 206.533 145.363 198.53 140.79C190.527 136.217 181.462 133.93 171.335 133.93C161.208 133.93 151.735 137.033 142.915 143.24C134.095 149.447 129.685 157.287 129.685 166.76C129.685 173.13 131.89 178.438 136.3 182.685C140.873 186.768 145.937 189.708 151.49 191.505C157.207 193.302 164.557 195.425 173.54 197.875C182.687 200.325 189.792 202.693 194.855 204.98C212.495 212.82 221.315 226.948 221.315 247.365C221.315 257.655 219.355 266.72 215.435 274.56C211.678 282.4 206.86 288.362 200.98 292.445C189.383 300.285 177.705 304.205 165.945 304.205C155.165 304.205 144.058 300.857 132.625 294.16C127.072 290.893 122.498 286.32 118.905 280.44C115.312 274.56 113.515 267.7 113.515 259.86C113.515 251.857 115.638 246.058 119.885 242.465C124.295 238.708 128.133 236.83 131.4 236.83C134.83 236.83 137.77 237.565 140.22 239.035C142.67 240.505 143.895 242.138 143.895 243.935C143.895 245.732 143.487 246.63 142.67 246.63C141.853 246.63 141.2 246.385 140.71 245.895C140.383 245.405 140.057 244.833 139.73 244.18C138.587 242.547 135.892 241.73 131.645 241.73C127.562 241.73 124.213 243.527 121.6 247.12C119.15 250.55 117.925 254.96 117.925 260.35C117.925 272.11 122.907 281.583 132.87 288.77C142.833 295.793 153.532 299.305 164.965 299.305C180.645 299.305 193.14 293.997 202.45 283.38C207.84 277.01 210.535 268.843 210.535 258.88C210.535 248.917 207.105 241.485 200.245 236.585C193.548 231.522 184.075 227.602 171.825 224.825C159.575 221.885 150.918 219.598 145.855 217.965Z" fill="#080D12"/>
<path d="M206.75 133H272.25C318.25 133 341.25 148.917 341.25 180.75C341.25 194.583 337.333 205 329.5 212C321.667 219 311.917 223.5 300.25 225.5C312.417 225.667 321.583 229.5 327.75 237C334.083 244.5 337.25 253.917 337.25 265.25V317.75C337.25 325.75 341.333 329.75 349.5 329.75C351.5 329.75 353.25 329.417 354.75 328.75C356.25 328.25 357.167 328 357.5 328C358.833 328 359.5 328.75 359.5 330.25C359.5 333.25 355.083 334.75 346.25 334.75C337.417 334.75 329.5 332.25 322.5 327.25C315.5 322.25 312 315.25 312 306.25V286.75C312 261.917 310.083 245.917 306.25 238.75C304.75 235.917 303.417 233.75 302.25 232.25C301.083 230.75 299.25 229.583 296.75 228.75C294.25 227.917 289.75 227.333 283.25 227C262.417 226.167 251.5 217.083 250.5 199.75V307H225.5V138H206.5C198.667 138 192.833 139.75 189 143.25C185.167 146.583 183.25 150.583 183.25 155.25C183.25 159.75 184.417 163.5 186.75 166.5C189.083 169.5 192.167 171 196 171C200 171 202.917 170.083 204.75 168.25C206.583 166.417 208 164.667 209 163C210 161.167 211 160.25 212 160.25C213 160.25 213.5 161.5 213.5 164C213.5 166.5 211.583 169.167 207.75 172C204.083 174.667 199.75 176 194.75 176C189.75 176 185.75 174.083 182.75 170.25C179.75 166.417 178.25 161.667 178.25 156C178.25 150.167 180.667 144.917 185.5 140.25C190.5 135.417 197.583 133 206.75 133ZM250.5 195.25C250.667 186.083 253.083 179.5 257.75 175.5C262.583 171.5 267.25 169.5 271.75 169.5C276.25 169.5 280.083 170.25 283.25 171.75C286.583 173.25 288.25 174.75 288.25 176.25C288.25 176.917 287.917 177.583 287.25 178.25C286.75 178.75 286.25 179 285.75 179C285.417 179 284 178.25 281.5 176.75C279 175.25 275.75 174.5 271.75 174.5C267.75 174.5 264 176.167 260.5 179.5C257 182.667 255.25 188 255.25 195.5C255.25 202.833 257.833 209.167 263 214.5C268.167 219.667 276 222.25 286.5 222.25C297 222.25 305 219.5 310.5 214C316.167 208.5 319 198.167 319 183C319 167.667 315.5 156.333 308.5 149C301.5 141.667 290.583 138 275.75 138H250.5V195.25Z" fill="#080D12"/>
</g>
<defs>
<clipPath id="clip0_1_221">
<rect width="443" height="443" fill="white"/>
</clipPath>
</defs>
</svg>
