<svg width="1000" height="1000" viewBox="0 0 1000 1000" fill="none" xmlns="http://www.w3.org/2000/svg">
<path d="M473.475 95.218C471.733 95.3763 466.191 95.9305 461.202 96.3263C346.155 106.697 238.393 168.764 170.141 264.161C132.135 317.203 107.827 377.37 98.6422 441.1C95.3959 463.346 95 469.917 95 500.079C95 530.242 95.3959 536.813 98.6422 559.059C120.654 711.139 228.892 838.915 375.689 886.257C401.977 894.728 429.689 900.507 461.202 903.991C473.475 905.336 526.525 905.336 538.798 903.991C593.194 897.974 639.276 884.515 684.724 861.319C691.692 857.757 693.038 856.807 692.088 856.015C691.455 855.54 661.762 815.719 626.132 767.585L561.364 680.106L480.205 560.009C435.548 493.983 398.809 439.991 398.493 439.991C398.176 439.912 397.859 493.271 397.701 558.426C397.463 672.506 397.384 677.097 395.959 679.789C393.9 683.668 392.317 685.252 388.991 686.993C386.457 688.26 384.24 688.497 372.284 688.497H358.587L354.944 686.202C352.569 684.697 350.827 682.718 349.639 680.422L347.977 676.86L348.135 518.129L348.372 359.32L350.827 356.232C352.094 354.57 354.786 352.432 356.686 351.403C359.933 349.82 361.199 349.662 374.897 349.662C391.05 349.662 393.742 350.295 397.938 354.887C399.126 356.153 443.07 422.337 495.645 502.059C548.22 581.78 620.114 690.635 655.428 744.073L719.563 841.211L722.809 839.074C751.551 820.39 781.956 793.79 806.026 766.081C857.255 707.26 890.273 635.534 901.358 559.059C904.604 536.813 905 530.242 905 500.079C905 469.917 904.604 463.346 901.358 441.1C879.346 289.019 771.109 161.243 624.311 113.901C598.419 105.51 570.865 99.7305 539.985 96.2471C532.384 95.4555 480.047 94.5846 473.475 95.218ZM639.276 340.161C643.076 342.061 646.164 345.703 647.273 349.503C647.906 351.562 648.065 395.579 647.906 494.775L647.669 637.118L622.569 598.643L597.39 560.167V456.696C597.39 389.799 597.707 352.195 598.182 350.374C599.449 345.941 602.22 342.457 606.021 340.399C609.267 338.736 610.455 338.578 622.886 338.578C634.604 338.578 636.663 338.736 639.276 340.161Z" fill="white"/>
</svg>
