<svg width="1000" height="1000" viewBox="0 0 1000 1000" fill="none" xmlns="http://www.w3.org/2000/svg">
<g clip-path="url(#clip0_1_108)">
<g clip-path="url(#clip1_1_108)">
<path d="M60 328V621.127H304.633V670.264H500V621.127H940V328H60Z" fill="#CB3837"/>
<path d="M206.101 377.137H109.267V571.99H206.101V426.273H255.367V571.99H304.633V377.137H206.101ZM353.9 377.137V621.127H452.432V571.99H549.267V377.137H353.9ZM500 522.853H452.432V426.273H500V522.853ZM695.367 377.137H598.533V571.99H695.367V426.273H744.633V571.99H793.9V426.273H843.166V571.99H892.432V377.137H695.367Z" fill="white"/>
</g>
<path d="M206.101 377.137H109.267V571.99H206.101V426.273H255.367V571.99H304.633V377.137H206.101ZM353.9 377.137V621.127H452.432V571.99H549.267V377.137H353.9ZM500 522.853H452.432V426.273H500V522.853ZM695.367 377.137H598.533V571.99H695.367V426.273H744.633V571.99H793.9V426.273H843.166V571.99H892.432V377.137H695.367Z" fill="white"/>
</g>
<defs>
<clipPath id="clip0_1_108">
<rect width="1000" height="1000" fill="white"/>
</clipPath>
<clipPath id="clip1_1_108">
<rect width="880" height="343" fill="white" transform="translate(60 328)"/>
</clipPath>
</defs>
</svg>
