<svg width="1000" height="1000" viewBox="0 0 1000 1000" fill="none" xmlns="http://www.w3.org/2000/svg">
<path d="M908.272 500.546C908.272 446.471 840.555 395.226 736.732 363.446C760.691 257.627 750.042 173.438 703.123 146.484C692.308 140.161 679.663 137.166 665.853 137.166V174.27C673.507 174.27 679.663 175.767 684.821 178.596C707.449 191.573 717.265 240.989 709.612 304.547C707.781 320.187 704.786 336.659 701.126 353.464C668.515 345.477 632.909 339.321 595.473 335.328C573.012 304.547 549.718 276.595 526.258 252.137C580.499 201.723 631.412 174.103 666.019 174.103V137C620.264 137 560.367 169.611 499.803 226.181C439.24 169.944 379.342 137.666 333.587 137.666V174.769C368.028 174.769 419.108 202.222 473.349 252.303C450.055 276.761 426.761 304.547 404.633 335.328C367.03 339.321 331.424 345.477 298.813 353.63C294.987 336.992 292.158 320.853 290.161 305.379C282.341 241.821 291.992 192.405 314.453 179.261C319.445 176.266 325.934 174.935 333.587 174.935V137.832C319.611 137.832 306.966 140.827 295.985 147.149C249.231 174.103 238.749 258.126 262.875 363.613C159.385 395.558 92 446.638 92 500.546C92 554.62 159.718 605.866 263.54 637.645C239.581 743.464 250.23 827.653 297.15 854.607C307.964 860.93 320.609 863.925 334.586 863.925C380.341 863.925 440.238 831.314 500.802 774.744C561.365 830.981 621.262 863.259 667.018 863.259C680.994 863.259 693.639 860.264 704.62 853.942C751.374 826.988 761.856 742.965 737.73 637.478C840.887 605.699 908.272 554.453 908.272 500.546ZM691.642 389.569C685.486 411.032 677.832 433.161 669.181 455.29C662.359 441.979 655.205 428.668 647.385 415.358C639.731 402.047 631.578 389.069 623.426 376.424C647.052 379.918 669.846 384.244 691.642 389.569ZM615.439 566.766C602.461 589.227 589.151 610.524 575.341 630.324C550.55 632.487 525.426 633.651 500.136 633.651C475.012 633.651 449.889 632.487 425.264 630.49C411.454 610.691 397.977 589.56 384.999 567.265C372.354 545.469 360.874 523.34 350.392 501.045C360.708 478.749 372.354 456.454 384.833 434.658C397.811 412.196 411.121 390.9 424.931 371.1C449.722 368.937 474.846 367.772 500.136 367.772C525.26 367.772 550.384 368.937 575.008 370.934C588.818 390.733 602.295 411.864 615.273 434.159C627.918 455.955 639.398 478.084 649.88 500.379C639.398 522.674 627.918 544.97 615.439 566.766ZM669.181 545.136C678.165 567.431 685.819 589.727 692.141 611.356C670.345 616.68 647.385 621.173 623.592 624.667C631.745 611.855 639.897 598.711 647.551 585.234C655.205 571.924 662.359 558.447 669.181 545.136ZM500.469 722.666C484.995 706.693 469.522 688.89 454.215 669.424C469.189 670.089 484.496 670.588 499.97 670.588C515.61 670.588 531.083 670.256 546.224 669.424C531.25 688.89 515.776 706.693 500.469 722.666ZM376.68 624.667C353.054 621.173 330.26 616.847 308.464 611.523C314.62 590.059 322.273 567.93 330.925 545.802C337.747 559.112 344.901 572.423 352.721 585.733C360.541 599.044 368.528 612.022 376.68 624.667ZM499.637 278.425C515.111 294.398 530.584 312.201 545.891 331.667C530.917 331.002 515.61 330.503 500.136 330.503C484.496 330.503 469.023 330.836 453.882 331.667C468.856 312.201 484.33 294.398 499.637 278.425ZM376.514 376.424C368.361 389.236 360.208 402.38 352.555 415.857C344.901 429.168 337.747 442.478 330.925 455.789C321.941 433.493 314.287 411.198 307.964 389.569C329.761 384.411 352.721 379.918 376.514 376.424ZM225.938 584.735C167.038 559.611 128.937 526.668 128.937 500.546C128.937 474.424 167.038 441.313 225.938 416.356C240.247 410.2 255.887 404.709 272.026 399.551C281.51 432.162 293.988 466.104 309.462 500.878C294.155 535.486 281.842 569.261 272.525 601.706C256.053 596.548 240.413 590.891 225.938 584.735ZM315.452 822.496C292.824 809.518 283.007 760.102 290.661 696.544C292.491 680.904 295.486 664.432 299.146 647.628C331.757 655.614 367.363 661.77 404.799 665.763C427.261 696.544 450.554 724.496 474.014 748.954C419.773 799.368 368.86 826.988 334.253 826.988C326.766 826.821 320.443 825.324 315.452 822.496ZM710.111 695.712C717.931 759.27 708.28 808.686 685.819 821.83C680.827 824.825 674.338 826.156 666.685 826.156C632.244 826.156 581.164 798.703 526.924 748.622C550.217 724.164 573.511 696.378 595.64 665.597C633.242 661.604 668.848 655.448 701.459 647.295C705.286 664.099 708.281 680.239 710.111 695.712ZM774.168 584.735C759.859 590.891 744.219 596.382 728.08 601.54C718.596 568.929 706.118 534.987 690.644 500.213C705.951 465.605 718.263 431.83 727.581 399.385C744.053 404.543 759.693 410.2 774.334 416.356C833.234 441.48 871.335 474.424 871.335 500.546C871.169 526.668 833.067 559.778 774.168 584.735Z" fill="#61DAFB"/>
<path d="M499.969 576.582C541.963 576.582 576.006 542.539 576.006 500.546C576.006 458.552 541.963 424.509 499.969 424.509C457.975 424.509 423.933 458.552 423.933 500.546C423.933 542.539 457.975 576.582 499.969 576.582Z" fill="#61DAFB"/>
</svg>
