<svg width="1000" height="1000" viewBox="0 0 1000 1000" fill="none" xmlns="http://www.w3.org/2000/svg">
<g clip-path="url(#clip0_1_144)">
<path d="M652.387 646.795C681.539 643.777 703.656 618.646 702.65 588.486C701.647 558.328 676.512 534.2 646.354 534.2H644.345C613.177 535.206 589.051 561.343 590.057 592.506C591.063 607.587 597.093 620.655 606.141 629.703C571.961 697.06 519.685 746.319 441.271 787.537C387.99 815.685 332.699 825.739 277.408 818.703C232.168 812.671 196.982 792.566 174.862 759.388C142.695 710.129 139.68 656.846 166.824 603.566C185.926 565.363 216.081 537.215 235.183 523.14C231.162 510.072 225.129 487.956 222.114 471.872C76.344 577.429 91.4249 720.182 135.659 787.537C168.833 837.805 236.189 868.968 310.582 868.968C330.687 868.968 350.792 866.956 370.9 861.933C499.58 836.799 597.096 760.394 652.387 646.795ZM829.322 522.137C752.917 432.664 640.324 383.405 511.643 383.405H495.559C486.511 365.31 467.409 353.244 446.298 353.244H444.286C413.125 354.25 388.999 380.387 390.002 411.554C391.008 441.711 416.14 465.84 446.298 465.84H448.307C470.424 464.834 489.526 450.759 497.568 431.658H515.664C592.069 431.658 664.45 453.774 729.797 497.003C780.061 530.179 816.253 573.408 836.358 625.682C853.448 667.905 852.442 709.123 834.346 744.31C806.199 797.59 758.95 826.745 696.62 826.745C656.408 826.745 618.207 814.679 598.099 805.632C587.042 815.685 566.934 831.769 552.859 841.825C596.09 861.93 640.324 872.989 682.545 872.989C779.055 872.989 850.433 819.706 877.577 766.426C906.73 708.117 904.717 607.587 829.322 522.137ZM318.624 663.881C319.63 694.042 344.762 718.167 374.921 718.167H376.933C408.098 717.164 432.223 691.024 431.217 659.861C430.215 629.7 405.08 605.575 374.921 605.575H372.912C370.9 605.575 367.882 605.575 365.876 606.578C324.657 538.217 307.567 463.828 313.6 383.402C317.618 323.083 337.726 270.806 372.912 227.577C402.065 190.38 458.361 172.285 496.565 171.282C603.126 169.27 648.363 301.97 651.381 355.253C664.449 358.268 686.566 365.306 701.647 370.333C689.581 207.476 589.051 123.029 492.544 123.029C402.065 123.029 318.624 188.375 285.447 284.884C239.204 413.563 269.363 537.215 325.66 634.73C320.636 641.765 317.618 652.822 318.624 663.881Z" fill="#764ABC"/>
</g>
<defs>
<clipPath id="clip0_1_144">
<rect width="790" height="753" fill="white" transform="translate(105 123)"/>
</clipPath>
</defs>
</svg>
