<svg width="1000" height="1000" viewBox="0 0 1000 1000" fill="none" xmlns="http://www.w3.org/2000/svg">
<path d="M790.704 544.408C762.488 544.567 738.056 551.345 717.564 561.436C709.997 546.459 702.431 533.372 701.171 523.599C699.753 512.248 698.019 505.31 699.753 491.753C701.485 478.193 709.367 458.959 709.367 457.382C709.208 455.963 707.631 449.027 691.397 448.869C675.162 448.711 661.132 452.022 659.555 456.279C657.979 460.535 654.826 470.31 652.777 480.4C649.94 495.22 620.305 547.719 603.439 575.308C597.922 564.588 593.193 555.129 592.245 547.56C590.828 536.21 589.093 529.272 590.828 515.715C592.562 502.155 600.444 482.922 600.444 481.346C600.286 479.927 598.71 472.99 582.475 472.833C566.238 472.675 552.21 475.986 550.634 480.242C549.058 484.499 547.324 494.589 543.856 504.364C540.544 514.138 501.136 601.795 490.89 624.655C485.688 636.321 481.119 645.623 477.807 651.929C474.497 658.235 477.649 652.402 477.334 653.032C474.497 658.393 472.92 661.388 472.92 661.388V661.547C470.713 665.489 468.349 669.271 467.244 669.271C466.456 669.271 464.88 658.708 467.559 644.205C473.392 613.776 487.578 566.324 487.422 564.589C487.422 563.801 490.101 555.444 478.278 551.189C466.771 546.932 462.674 554.027 461.727 554.027C460.781 554.027 459.993 556.549 459.993 556.549C459.993 556.549 472.761 503.105 435.56 503.105C412.231 503.105 380.074 528.488 364.153 551.663C354.065 557.181 332.627 568.846 309.928 581.302C301.259 586.032 292.274 591.077 283.762 595.649L282.029 593.754C236.947 545.669 153.56 511.616 157.028 446.977C158.289 423.486 166.486 361.528 317.183 286.484C440.608 224.999 539.442 241.868 556.622 279.39C581.055 332.992 503.816 432.63 375.506 446.977C326.64 452.495 300.945 433.576 294.484 426.482C287.706 419.072 286.76 418.757 284.238 420.176C280.139 422.383 282.661 429.004 284.238 432.946C288.021 442.878 303.784 460.535 330.581 469.364C354.067 477.089 411.446 481.346 480.803 454.545C558.515 424.432 619.203 340.875 601.391 271.034C583.264 199.931 465.356 176.598 353.911 216.17C287.546 239.818 215.667 276.71 163.964 325.11C102.488 382.496 92.7144 432.63 96.8128 453.441C111.159 527.697 213.46 576.097 254.444 611.884C252.395 612.986 250.503 614.09 248.769 615.038C228.277 625.126 150.25 665.96 130.704 709.156C108.635 758.029 134.171 793.188 151.196 797.918C203.844 812.58 257.754 786.251 286.916 742.896C315.918 699.541 312.452 643.258 299.053 617.56L298.579 616.614L314.657 607.155C325.062 601.006 335.308 595.331 344.292 590.442C339.249 604.158 335.622 620.396 333.732 644.045C331.525 671.793 342.875 707.737 357.85 721.926C364.47 728.073 372.352 728.232 377.238 728.232C394.578 728.232 402.459 713.884 411.129 696.701C421.848 675.733 431.306 651.454 431.306 651.454C431.306 651.454 419.483 717.197 451.798 717.197C463.62 717.197 475.442 701.904 480.802 694.021V694.179C480.802 694.179 481.117 693.706 481.748 692.602C482.409 691.624 483.04 690.626 483.639 689.608V689.293C488.368 681.095 498.929 662.334 514.693 631.276C535.025 591.232 554.573 541.097 554.573 541.097C554.573 541.097 556.465 553.394 562.297 573.574C565.763 585.558 573.33 598.641 579.162 611.411C574.433 618.033 571.596 621.818 571.596 621.818L571.753 621.976C567.972 627.021 563.714 632.383 559.302 637.741C543.224 656.975 523.993 678.891 521.471 685.197C518.476 692.606 519.106 698.123 524.939 702.539C529.195 705.692 536.761 706.322 544.8 705.692C559.302 704.745 569.39 701.12 574.435 698.912C582.316 696.074 591.301 691.817 599.971 685.511C615.734 673.846 625.349 657.292 624.404 635.221C623.931 623.081 619.99 611.099 615.103 599.748C616.522 597.699 617.942 595.648 619.359 593.442C644.265 557.022 663.496 516.979 663.496 516.979C663.496 516.979 665.388 529.276 671.22 549.456C674.213 559.704 680.205 570.899 685.564 581.935C662.235 601.011 647.575 623.083 642.531 637.587C633.231 664.388 640.482 676.528 654.196 679.366C660.342 680.627 669.171 677.789 675.79 674.951C683.987 672.271 693.917 667.698 703.061 660.92C718.825 649.253 733.957 633.015 733.169 611.101C732.696 601.011 730.016 591.079 726.391 581.619C746.252 573.421 771.945 568.692 804.576 572.633C874.722 580.831 888.593 624.659 885.915 642.947C883.235 661.237 868.576 671.325 863.687 674.478C858.801 677.474 857.225 678.579 857.697 680.784C858.328 684.097 860.535 683.938 864.791 683.309C870.623 682.361 901.676 668.331 902.938 634.595C904.829 591.233 863.687 543.937 790.704 544.408ZM249.715 726.815C226.543 752.198 193.914 761.815 180.042 753.616C165.067 744.945 170.898 707.581 199.431 680.622C216.77 664.226 239.311 649.091 254.129 639.789C257.439 637.74 262.483 634.746 268.473 631.118C269.419 630.489 270.049 630.172 270.049 630.172C271.153 629.542 272.414 628.754 273.675 627.965C284.236 666.433 274.148 700.171 249.715 726.815ZM419.168 611.569C411.129 631.276 394.105 681.883 383.859 679.046C375.03 676.681 369.672 638.371 382.123 600.533C388.429 581.455 401.827 558.755 409.709 549.924C422.478 535.735 436.348 531.006 439.818 536.839C443.916 544.408 424.212 599.272 419.168 611.569ZM558.987 678.415C555.519 680.151 552.366 681.41 550.948 680.466C549.844 679.835 552.365 677.471 552.365 677.471C552.365 677.471 569.862 658.71 576.798 650.039C580.738 644.995 585.467 639.162 590.511 632.539V634.431C590.513 657.131 568.76 672.266 558.987 678.415ZM666.805 653.821C664.283 651.929 664.6 646.096 673.11 627.808C676.422 620.555 683.987 608.416 697.07 596.907C698.646 601.637 699.594 606.207 699.434 610.466C699.278 638.843 679.102 649.406 666.805 653.821Z" fill="#CF649A"/>
</svg>
