<svg width="1000" height="1000" viewBox="0 0 1000 1000" fill="none" xmlns="http://www.w3.org/2000/svg">
<g clip-path="url(#clip0_1_133)">
<path d="M120 120H880V880H120V120Z" fill="#34BDB2"/>
<path d="M620.119 378.403C579.993 355.122 544.374 336.814 497.776 337.622C471.117 338.085 448.228 352.575 443.416 379.095C438.936 403.768 460.869 417.454 483.687 425.856C521.529 439.791 554.474 454.504 591.657 469.998C659.253 498.169 693.913 543.789 689.816 602.324C684.603 676.801 639.781 730.218 568.545 747.829C475.463 770.842 385.074 735.787 308.703 686.85C327.979 657.487 350.342 637.442 369.503 608.256C413.624 627.036 448.287 652.413 494.445 656.37C526.992 659.161 563.87 657.608 571.182 619.38C577.772 584.907 547.77 566.426 518.507 556.104C483.669 543.816 448.896 528.785 414.732 514.832C351.577 489.037 325.88 438.583 330.205 379.145C330.205 344.295 359.121 273.856 430.018 251.946C538.947 218.281 598.963 252.754 677.953 303.517C656.973 331.262 640.843 350.99 620.119 378.403Z" fill="white"/>
</g>
<defs>
<clipPath id="clip0_1_133">
<rect width="760" height="760" fill="white" transform="translate(120 120)"/>
</clipPath>
</defs>
</svg>
