<svg width="1000" height="1000" viewBox="0 0 1000 1000" fill="none" xmlns="http://www.w3.org/2000/svg">
<g clip-path="url(#clip0_1_127)">
<path d="M500 260.639C393.601 260.639 327.099 313.831 300.5 420.213C340.4 367.021 386.949 347.074 440.15 360.373C470.502 367.959 492.198 389.978 516.213 414.348C555.333 454.051 600.607 500 699.5 500C805.899 500 872.401 446.808 899 340.426C859.1 393.618 812.551 413.565 759.35 400.266C728.998 392.68 707.302 370.661 683.287 346.292C644.167 306.588 598.893 260.639 500 260.639ZM300.5 500C194.101 500 127.599 553.193 101 659.575C140.9 606.382 187.449 586.436 240.65 599.734C271.002 607.32 292.698 629.34 316.712 653.709C355.833 693.413 401.107 739.362 500 739.362C606.399 739.362 672.901 686.17 699.5 579.788C659.6 632.98 613.051 652.927 559.85 639.628C529.498 632.042 507.802 610.023 483.788 585.653C444.667 545.95 399.393 500 300.5 500Z" fill="url(#paint0_linear_1_127)"/>
</g>
<defs>
<linearGradient id="paint0_linear_1_127" x1="-5574.12" y1="23790.9" x2="-3211.91" y2="50302.2" gradientUnits="userSpaceOnUse">
<stop stop-color="#2298BD"/>
<stop offset="1" stop-color="#0ED7B5"/>
</linearGradient>
<clipPath id="clip0_1_127">
<rect width="798" height="480" fill="white" transform="translate(101 260)"/>
</clipPath>
</defs>
</svg>
