<svg width="100" height="100" viewBox="0 0 100 100" fill="none" xmlns="http://www.w3.org/2000/svg">
<rect width="100" height="100" fill="white"/>
<g clip-path="url(#clip0_1_198)">
<path d="M45.3489 68.9366H44.6792V64.0093H45.3489V68.9366ZM52.6052 64.0093V68.9366H52.2736C52.228 68.9366 52.1825 68.9213 52.137 68.9039C52.1045 68.8909 52.059 68.8582 52.0308 68.8125L49.2046 65.0932C49.2046 65.1541 49.2198 65.1998 49.2198 65.2629V68.9192H48.6411V63.9919H49.0507C49.0681 63.9919 49.0962 64.0072 49.1114 64.0072C49.1266 64.0202 49.1417 64.0202 49.1569 64.0376C49.1721 64.0529 49.1873 64.0703 49.2024 64.0986L52.0286 67.8005C52.0286 67.7396 52.0135 67.6765 52.0135 67.6308V63.9898L52.6052 64.0093ZM57.4665 64.0093C57.7721 64.0093 58.0278 64.042 58.2424 64.1008C58.4548 64.1617 58.6369 64.24 58.7756 64.3619C58.9121 64.4686 59.0161 64.6057 59.079 64.7624C59.1419 64.9169 59.1852 65.0975 59.1852 65.2977C59.1852 65.4218 59.17 65.5415 59.1245 65.6503C59.079 65.7569 59.0335 65.8658 58.9576 65.9572C58.8796 66.0508 58.7886 66.1422 58.6694 66.2183C58.5458 66.2967 58.4266 66.3576 58.2597 66.4033C58.6239 66.4795 58.8818 66.6014 59.066 66.7842C59.2481 66.967 59.3391 67.2282 59.3391 67.5328C59.3391 67.7483 59.2936 67.9333 59.2155 68.0987C59.1397 68.2684 59.0335 68.4208 58.8818 68.5427C58.7322 68.6667 58.5502 68.7581 58.3356 68.8343C58.1232 68.8931 57.8805 68.9388 57.6074 68.9388H55.8757V64.0115L57.4665 64.0093ZM56.5562 64.5469V66.227H57.4362C57.6182 66.227 57.7873 66.214 57.9238 66.1683C58.0603 66.1226 58.1817 66.0747 58.2554 65.9985C58.3464 65.9202 58.4071 65.8288 58.4526 65.7374C58.4982 65.6307 58.5133 65.5219 58.5133 65.4022C58.5133 65.1106 58.4223 64.8973 58.2532 64.758C58.0864 64.6209 57.8111 64.56 57.447 64.56L56.5562 64.5469ZM57.6182 68.4469C57.8003 68.4469 57.9693 68.399 58.1059 68.3533C58.2424 68.3076 58.3464 68.2489 58.4375 68.1705C58.5307 68.0922 58.5892 68.0008 58.6347 67.8941C58.6802 67.7896 58.6954 67.6656 58.6954 67.5415C58.6954 67.2804 58.6044 67.0823 58.4223 66.9452C58.2402 66.7929 57.965 66.7298 57.616 66.7298H56.554V68.4426H57.6182V68.4469ZM66.8792 66.4751C66.8792 66.8408 66.8207 67.1781 66.7124 67.485C66.5888 67.7918 66.4393 68.0508 66.2247 68.2793C66.0123 68.51 65.7544 68.6776 65.464 68.7995C65.1606 68.9213 64.8398 68.9823 64.4757 68.9823C64.1116 68.9823 63.793 68.9213 63.4874 68.7995C63.2013 68.6754 62.9412 68.51 62.7266 68.2793C62.5142 68.0508 62.3495 67.7896 62.2411 67.485C62.1176 67.1781 62.0721 66.8408 62.0721 66.4751C62.0721 66.1073 62.1328 65.7722 62.2411 65.4653C62.3495 65.1585 62.5142 64.8821 62.7266 64.6688C62.9412 64.4403 63.1969 64.2705 63.4874 64.1508C63.7756 64.0268 64.1116 63.9658 64.4757 63.9658C64.8398 63.9658 65.1606 64.0268 65.464 64.1508C65.7696 64.2727 66.0123 64.4403 66.2247 64.6688C66.4393 64.8995 66.604 65.1606 66.7124 65.4653C66.8207 65.7678 66.8792 66.1073 66.8792 66.4751ZM66.1965 66.4751C66.1965 66.1683 66.151 65.8919 66.073 65.6634C65.9971 65.4174 65.8779 65.2172 65.7241 65.0518C65.5723 64.8821 65.3903 64.7624 65.1779 64.6688C64.9633 64.5774 64.7206 64.5317 64.4627 64.5317C64.2026 64.5317 63.9598 64.5774 63.7474 64.6688C63.5329 64.7624 63.3508 64.8842 63.2013 65.0518C63.0496 65.2216 62.926 65.4174 62.8502 65.6634C62.7721 65.9071 62.7266 66.1683 62.7266 66.4751C62.7266 66.782 62.7721 67.0388 62.8502 67.2869C62.926 67.5307 63.0474 67.7309 63.2013 67.8985C63.3508 68.066 63.5329 68.1879 63.7474 68.2793C63.9598 68.3707 64.2026 68.4164 64.4627 68.4164C64.7206 68.4164 64.9633 68.3707 65.1779 68.2793C65.3903 68.1879 65.5723 68.0639 65.7241 67.8985C65.8736 67.7287 65.9971 67.5307 66.073 67.2869C66.151 67.054 66.1965 66.7777 66.1965 66.4751ZM71.7558 68.4164C71.953 68.4164 72.135 68.386 72.3019 68.312C72.4536 68.2336 72.5902 68.1422 72.7116 68.0203C72.8351 67.8985 72.9088 67.7461 72.9716 67.5764C73.0323 67.4066 73.0627 67.2086 73.0627 67.0105V64.0115H73.715V67.0105C73.715 67.3 73.6695 67.5611 73.5785 67.8049C73.4875 68.0508 73.3639 68.2641 73.1992 68.4338C73.0323 68.6188 72.8351 68.7559 72.5924 68.8473C72.3518 68.9388 72.0765 68.9997 71.7861 68.9997C71.4827 68.9997 71.2096 68.954 70.982 68.8473C70.7393 68.7407 70.5399 68.6036 70.3752 68.4338C70.2061 68.251 70.0696 68.053 69.9959 67.8049C69.9049 67.5611 69.8593 67.3 69.8593 67.0105V64.0115H70.5117V66.9975C70.5117 67.1955 70.5421 67.3957 70.6027 67.5611C70.6613 67.7309 70.7393 67.8832 70.8607 68.0073C70.9842 68.1292 71.1034 68.2227 71.2724 68.2967C71.4372 68.3707 71.5564 68.4164 71.7558 68.4164ZM80.8954 64.0093V68.9366H80.5617C80.5161 68.9366 80.4706 68.9213 80.4251 68.9039C80.3926 68.8909 80.3471 68.8582 80.3189 68.8125L77.4949 65.0932C77.4949 65.1541 77.5079 65.1998 77.5079 65.2629V68.9192H76.9314V63.9919H77.341C77.3583 63.9919 77.3865 64.0072 77.3995 64.0072C77.4147 64.0202 77.432 64.0202 77.445 64.0376C77.4602 64.0529 77.4775 64.0703 77.4905 64.0986L80.3168 67.8005C80.3168 67.7396 80.3016 67.6765 80.3016 67.6308V63.9898L80.8954 64.0093ZM88.4269 66.4751C88.4269 66.8408 88.3684 67.1781 88.26 67.485C88.1365 67.7918 87.987 68.0508 87.7724 68.2641C87.56 68.4795 87.3021 68.6471 87.0117 68.7712C86.7256 68.8931 86.3875 68.954 86.0234 68.954H84.2006V64.0268H86.0234C86.3875 64.0268 86.7082 64.0877 87.0117 64.2096C87.3173 64.3336 87.56 64.5012 87.7724 64.7145C87.987 64.9299 88.1517 65.1889 88.26 65.4958C88.3641 65.7678 88.4269 66.1073 88.4269 66.4751ZM87.7442 66.4751C87.7442 66.1683 87.6987 65.9093 87.6207 65.6634C87.5448 65.4174 87.4256 65.2172 87.2717 65.0518C87.12 64.8821 86.938 64.7624 86.7256 64.6688C86.511 64.5774 86.2683 64.5317 86.0103 64.5317H84.84V68.3707H86.0103C86.2683 68.3707 86.511 68.325 86.7256 68.2336C86.938 68.1422 87.12 68.0182 87.2717 67.8528C87.4213 67.683 87.5448 67.485 87.6207 67.2543C87.7117 67.054 87.7442 66.7777 87.7442 66.4751Z" fill="#152739"/>
<path d="M17.5311 62.269C13.6884 57.814 11.0486 52.2905 9.99961 46.4949C9.80455 45.3784 9.668 44.2163 9.668 43.0693C9.51629 43.3131 9.36241 43.559 9.22587 43.8028C7.23842 47.335 6.88731 51.803 7.66322 55.7335C8.6797 60.9044 12.945 65.0199 18.3504 64.0558C18.6234 64.0101 18.8965 63.9491 19.1718 63.886C18.5649 63.4138 18.0318 62.8479 17.5311 62.269Z" fill="#44C1C0"/>
<path d="M39.4429 42.1784C40.7043 43.0055 41.8855 43.9979 42.8434 45.1774C43.1165 44.074 43.3441 42.9576 43.3137 41.8433C43.2227 38.7834 41.1572 36.0151 38.5001 34.5286C35.1602 32.6765 27.8108 31.5013 25.0322 35.064C27.6114 36.0151 29.7397 37.7104 32.2733 38.8116C34.6899 39.8824 37.165 40.7094 39.4429 42.1784Z" fill="#9251A0"/>
<path d="M42.3733 59.4811C39.7162 62.9263 35.6329 65.0199 31.4391 66.1364C30.9991 66.2604 30.544 66.3518 30.104 66.4432C32.3645 67.0091 34.5666 67.4226 37.0135 66.8415C41.1748 65.8643 44.6512 61.4877 43.7994 57.1895C43.405 57.9991 42.9195 58.7651 42.3733 59.4811Z" fill="#8FC640"/>
<path d="M44.1198 47.1824C43.7687 46.462 43.3309 45.7917 42.8281 45.1801C41.8723 44.0006 40.7041 43.0081 39.4275 42.1811C37.167 40.6969 34.6919 39.872 32.245 38.8143C29.7113 37.7131 27.6003 36.0156 25.0039 35.0689C24.7156 34.9622 24.4252 34.8708 24.1239 34.7772C21.1612 33.9306 17.9123 33.9306 15.0558 35.0797C13.4455 35.7218 11.9435 36.7316 10.9855 38.1832C10.0276 39.6218 9.67862 41.3215 9.66345 43.08C9.65045 44.2269 9.78699 45.3891 9.99722 46.5055C11.0484 52.3229 13.6882 57.829 17.5309 62.2818C18.0315 62.8651 18.5647 63.4309 19.1716 63.9032C19.2474 63.9641 19.3385 64.0272 19.4121 64.0882C20.4004 64.7759 21.5535 65.1894 22.6762 65.5703C24.1348 66.0752 25.6064 66.5801 27.1387 66.6867C28.127 66.7477 29.1132 66.641 30.0841 66.4582C30.5393 66.3668 30.9814 66.2602 31.4192 66.1513C35.6108 65.0479 39.6789 62.9369 42.3534 59.4961C42.8996 58.7931 43.3872 58.0118 43.7795 57.2001C45.3183 54.0357 45.6369 50.288 44.1198 47.1824Z" fill="#152739"/>
<path d="M25.0494 33.0125C25.8101 32.7992 26.3844 32.0179 26.3693 31.2235C26.3693 31.0842 26.3563 30.9471 26.2934 30.81C26.1395 30.427 25.7299 30.1832 25.3355 30.0918C22.3142 29.3279 22.0281 33.8721 25.0494 33.0125Z" fill="#8FC640"/>
<path d="M16.9696 65.0068C15.4959 65.3594 14.7676 66.7958 16.4083 67.1331C16.8504 67.2245 17.3511 67.2093 17.8344 67.1331C18.4738 67.0395 19.1717 66.8415 19.5206 66.4584C20.7647 65.0525 18.6407 64.6064 16.9696 65.0068Z" fill="#9251A0"/>
<path d="M25.7022 59.8812C25.3511 59.8812 25.0325 59.7572 24.7767 59.4982C24.5167 59.2544 24.3975 58.9345 24.3975 58.5798V51.1149C24.3975 50.7471 24.534 50.4403 24.7767 50.1965C25.0347 49.9528 25.3359 49.8135 25.7022 49.8135C26.0511 49.8135 26.3697 49.9375 26.6125 50.1965C26.8552 50.4403 26.9918 50.7602 26.9918 51.1149V58.5798C26.9918 58.9476 26.8682 59.2544 26.6125 59.4982C26.3546 59.7419 26.049 59.8812 25.7022 59.8812Z" fill="#152739"/>
<path d="M25.7022 50.0266C25.9883 50.0266 26.2483 50.1332 26.4607 50.3335C26.6753 50.5489 26.7663 50.7927 26.7663 51.0995V58.5665C26.7663 58.856 26.6601 59.1172 26.4607 59.3326C26.2483 59.5481 26.0056 59.6395 25.7022 59.6395C25.4139 59.6395 25.1538 59.5328 24.9414 59.3326C24.7269 59.1172 24.6228 58.8734 24.6228 58.5665V51.0973C24.6228 50.8079 24.7269 50.5467 24.9414 50.3313C25.1408 50.1354 25.3966 50.0266 25.7022 50.0266ZM25.7022 49.5674C25.2774 49.5674 24.9263 49.7197 24.6228 50.0114C24.3172 50.3052 24.1655 50.686 24.1655 51.0995V58.5665C24.1655 58.98 24.3172 59.3609 24.6228 59.6547C24.9263 59.9463 25.2904 60.0987 25.7022 60.0987C26.1118 60.0987 26.4911 59.9463 26.7815 59.6547C27.0676 59.3631 27.2215 58.98 27.2215 58.5665V51.0973C27.2215 50.6838 27.0719 50.303 26.7815 50.0092C26.4759 49.7371 26.1118 49.5674 25.7022 49.5674Z" fill="white"/>
<path d="M21.1311 44.9165C20.7648 44.9165 20.4614 44.7925 20.2186 44.5335C19.9759 44.2898 19.8394 43.9698 19.8394 43.6151C19.8394 43.2625 19.9629 42.9578 20.2186 42.7119C20.4614 42.4682 20.78 42.3311 21.1311 42.3311H30.2556C30.6045 42.3311 30.908 42.4529 31.1529 42.7119C31.3978 42.9709 31.53 43.2625 31.53 43.6151C31.53 43.9698 31.4086 44.2898 31.1529 44.5335C30.9101 44.7773 30.6045 44.9165 30.2556 44.9165H21.1311Z" fill="#152739"/>
<path d="M30.2553 42.5598C30.5436 42.5598 30.7885 42.6664 30.9987 42.8667C31.2111 43.0821 31.3022 43.3259 31.3022 43.6153C31.3022 43.9069 31.1981 44.1681 30.9987 44.3814C30.7842 44.5968 30.5436 44.6904 30.2553 44.6904H21.1308C20.8426 44.6904 20.5825 44.5838 20.3701 44.3814C20.1555 44.1681 20.0645 43.9222 20.0645 43.6153C20.0645 43.3259 20.1707 43.0799 20.3701 42.8667C20.5825 42.6512 20.8253 42.5598 21.1308 42.5598H30.2553ZM30.2553 42.1006H21.1308C20.7191 42.1006 20.3419 42.2529 20.0515 42.5467C19.7633 42.8362 19.6094 43.204 19.6094 43.6153C19.6094 44.0288 19.7611 44.4119 20.0515 44.7035C20.3376 44.9929 20.7191 45.1475 21.1308 45.1475H30.2553C30.665 45.1475 31.0291 44.9973 31.3173 44.7035C31.6056 44.414 31.7595 44.0288 31.7595 43.6153C31.7595 43.204 31.6078 42.8362 31.3173 42.5467C31.0291 42.2551 30.665 42.1006 30.2553 42.1006Z" fill="white"/>
<path d="M83.4314 43.7087C82.1419 42.9426 80.7288 42.5596 79.1813 42.5596C77.6165 42.5596 76.1904 42.9426 74.9138 43.7087C73.6242 44.4747 72.6077 45.5129 71.847 46.7991C71.0863 48.0984 70.707 49.5217 70.707 51.0821C70.707 52.6578 71.0863 54.0811 71.847 55.3804C72.6077 56.6666 73.6242 57.7047 74.9138 58.4708C76.2034 59.2369 77.6165 59.6199 79.1813 59.6199C80.7288 59.6199 82.157 59.2369 83.4314 58.4708C84.7232 57.7047 85.7397 56.6666 86.5004 55.3804C87.2611 54.0963 87.6382 52.6578 87.6382 51.0821C87.6382 49.5217 87.2611 48.0831 86.5004 46.7991C85.7397 45.5129 84.7058 44.4747 83.4314 43.7087ZM84.6451 54.3096C84.0686 55.2759 83.3101 56.0376 82.3521 56.6209C81.3963 57.2042 80.3343 57.4784 79.1813 57.4784C78.0109 57.4784 76.9468 57.1889 75.991 56.6209C75.033 56.0376 74.2766 55.2759 73.6979 54.3096C73.1192 53.3455 72.8462 52.2769 72.8462 51.0974C72.8462 49.9178 73.1344 48.847 73.6979 47.8829C74.2766 46.9188 75.033 46.1549 75.991 45.5738C76.9468 44.9905 78.0109 44.7141 79.1813 44.7141C80.3343 44.7141 81.3963 45.0058 82.3521 45.5738C83.3101 46.1549 84.0838 46.9188 84.6451 47.8829C85.2238 48.847 85.5121 49.9178 85.5121 51.0974C85.5121 52.2617 85.2238 53.3325 84.6451 54.3096ZM45.1064 59.8027C44.7574 59.8027 44.4562 59.6787 44.1809 59.4218L41.8749 57.0975C41.6148 56.8364 41.4956 56.5143 41.4956 56.1639C41.4956 55.8113 41.6191 55.5066 41.8749 55.2324C42.148 54.9712 42.4536 54.8319 42.8003 54.8319C43.1471 54.8319 43.4527 54.956 43.7258 55.215L46.034 57.5567C46.2919 57.8179 46.4111 58.1378 46.4111 58.4882C46.4111 58.8408 46.2898 59.1455 46.034 59.4066C45.7739 59.6656 45.4553 59.8027 45.1064 59.8027Z" fill="#152739"/>
<path d="M42.7982 55.0608C43.0864 55.0608 43.3444 55.1652 43.5719 55.3807L45.8801 57.7224C46.0925 57.9379 46.1987 58.1969 46.1987 58.4885C46.1987 58.778 46.0925 59.0391 45.8801 59.2546C45.6656 59.47 45.4098 59.5767 45.1194 59.5767C44.8311 59.5767 44.5711 59.47 44.3435 59.2546L42.0374 56.9302C41.8229 56.7148 41.7188 56.458 41.7188 56.1642C41.7188 55.8747 41.8229 55.6136 42.0374 55.385C42.252 55.1696 42.5099 55.0608 42.7982 55.0608ZM42.7982 54.6016C42.3886 54.6016 42.0223 54.7539 41.7188 55.0455L41.6907 55.0738C41.4024 55.3959 41.2485 55.7637 41.2485 56.162C41.2485 56.5755 41.4002 56.9433 41.6907 57.2502L43.9967 59.5745C44.3153 59.864 44.6794 60.0185 45.0761 60.0185C45.4857 60.0185 45.8498 59.8661 46.1554 59.5745C46.4436 59.2676 46.5975 58.8998 46.5975 58.4863C46.5975 58.0728 46.4458 57.705 46.1554 57.3982L43.8493 55.0564C43.5589 54.7561 43.1926 54.6016 42.7982 54.6016Z" fill="white"/>
<path d="M62.7181 43.7085C61.4285 42.9424 60.0154 42.5593 58.4679 42.5593C56.9031 42.5593 55.477 42.9424 54.2004 43.7085C52.9108 44.4745 51.8944 45.5126 51.1336 46.7989C50.3729 48.0981 49.9936 49.5215 49.9936 51.0819C49.9936 52.6576 50.3729 54.0809 51.1336 55.3802C51.8944 56.6664 52.9108 57.7045 54.2004 58.4706C55.49 59.2366 56.9031 59.6197 58.4679 59.6197C60.0154 59.6197 61.4437 59.2366 62.7181 58.4706C64.0098 57.7045 65.0263 56.6664 65.787 55.3802C66.5477 54.0961 66.9249 52.6576 66.9249 51.0819C66.9249 49.5215 66.5477 48.0829 65.787 46.7989C65.0263 45.5126 64.0098 44.4745 62.7181 43.7085ZM63.9361 54.3094C63.3574 55.2757 62.5988 56.0374 61.6431 56.6207C60.6851 57.2039 59.6231 57.4782 58.4701 57.4782C57.2997 57.4782 56.2377 57.1887 55.2797 56.6207C54.3239 56.0374 53.5654 55.2757 52.9867 54.3094C52.4102 53.3453 52.1371 52.2767 52.1371 51.0971C52.1371 49.9175 52.4232 48.8468 52.9867 47.8827C53.5654 46.9186 54.3239 46.1547 55.2797 45.5736C56.2377 44.9903 57.2997 44.7139 58.4701 44.7139C59.6231 44.7139 60.6851 45.0056 61.6431 45.5736C62.5988 46.1547 63.3748 46.9186 63.9361 47.8827C64.5126 48.8468 64.8009 49.9175 64.8009 51.0971C64.8009 52.2615 64.5104 53.3322 63.9361 54.3094ZM36.1616 59.8482C35.8105 59.8482 35.4919 59.7263 35.2362 59.4673C34.9761 59.2236 34.8569 58.9015 34.8569 58.5489V51.0971C34.8569 50.7598 34.9804 50.4529 35.208 50.1918L35.2665 50.1156H35.2817C35.5418 49.8718 35.8279 49.7478 36.1616 49.7478L37.7265 49.763H41.2636C41.9311 49.763 42.4621 49.5476 42.9172 49.0884C43.3724 48.6292 43.6 48.0785 43.6325 47.3756V47.3038C43.6 46.6139 43.3594 46.0633 42.9021 45.6215C42.4469 45.1775 41.9138 44.9642 41.2636 44.9642H37.7091L36.1595 44.9794C35.7954 44.9794 35.4898 44.8402 35.234 44.579C34.9739 44.3178 34.8374 43.9979 34.8374 43.6475C34.8374 43.2797 34.9609 42.9729 35.2167 42.7139C35.4746 42.4527 35.778 42.333 36.1421 42.333H37.4946L39.8786 42.3657C39.9241 42.3504 39.9697 42.3504 40.0152 42.3504H41.2592L41.2917 42.3352H41.3373C41.4413 42.3352 41.5497 42.3352 41.6559 42.3504C42.4448 42.3657 43.069 42.4571 43.5241 42.6573C43.9792 42.8553 44.3889 43.1317 44.74 43.4843L44.8007 43.5431C45.1496 43.8499 45.4509 44.2003 45.6958 44.6008V44.6138L45.802 44.7379L45.8171 44.7531C46.2398 45.5649 46.4543 46.4332 46.424 47.3364C46.437 48.7293 45.9992 49.9219 45.1019 50.8882C44.1591 51.8654 42.8696 52.3572 41.2592 52.3572L37.5401 52.3877C37.5097 52.3877 37.4946 52.3877 37.4794 52.4029C37.4664 52.416 37.4664 52.4334 37.4664 52.4617V58.5206C37.4664 58.8732 37.3428 59.1953 37.0871 59.439C36.8162 59.7263 36.5128 59.8482 36.1616 59.8482Z" fill="#152739"/>
<path d="M41.3394 42.56C41.4456 42.56 41.5367 42.56 41.645 42.5753H41.658C42.4014 42.5883 43.0105 42.6819 43.4353 42.8647C43.8774 43.0475 44.2567 43.3087 44.5753 43.646C44.5753 43.6591 44.5753 43.6591 44.5883 43.6765C44.9546 43.9659 45.258 44.3337 45.5007 44.732C45.5137 44.7472 45.5137 44.7646 45.5311 44.7777L45.6221 44.8843C46.0339 45.6657 46.229 46.4927 46.2008 47.3632V47.3784C46.216 48.7104 45.7912 49.8399 44.9394 50.7757C44.0421 51.7093 42.8154 52.1686 41.2658 52.1686L37.5466 52.199C37.4556 52.199 37.3949 52.2317 37.332 52.2904C37.2735 52.3514 37.241 52.4297 37.241 52.5059V58.5648C37.241 58.8543 37.1348 59.1154 36.9376 59.3309C36.723 59.5442 36.4803 59.6378 36.1768 59.6378C35.8886 59.6378 35.6285 59.5311 35.4161 59.3309C35.2015 59.1154 35.0975 58.8717 35.0975 58.5648V51.1152C35.0975 50.8388 35.1885 50.5951 35.3836 50.3796H35.3988C35.6263 50.1359 35.8864 50.0118 36.1877 50.0118L37.72 49.9987H41.2571C41.9723 49.9987 42.5792 49.755 43.0798 49.2631C43.5805 48.7735 43.8406 48.1467 43.8536 47.398C43.8536 47.3676 43.8536 47.3371 43.8406 47.3066C43.808 46.571 43.535 45.9616 43.0516 45.4698C42.5488 44.9975 41.9571 44.7494 41.2463 44.7494H37.6962L36.1335 44.7646C35.8452 44.7646 35.5873 44.658 35.3728 44.4295C35.1604 44.214 35.0542 43.9551 35.0542 43.6482C35.0542 43.3587 35.1604 43.0976 35.3728 42.8821C35.5873 42.6667 35.8431 42.56 36.1335 42.56H37.4859L39.8548 42.5927H39.9003C39.9459 42.5774 39.9784 42.5774 40.0239 42.5774H41.2679C41.2788 42.5774 41.3113 42.5774 41.3394 42.56ZM41.3394 42.1008H41.2636L41.2311 42.116H40.0325C39.987 42.116 39.9263 42.116 39.8808 42.1291L37.5119 42.0986H36.1443C35.7347 42.0986 35.3554 42.251 35.065 42.5578C34.7767 42.8473 34.6099 43.2325 34.6099 43.646C34.6099 44.0726 34.7616 44.4404 35.065 44.7472C35.3706 45.0541 35.7499 45.2195 36.1595 45.2195L37.7222 45.2064H41.2744C41.8661 45.2064 42.3538 45.4045 42.7612 45.8028C43.1709 46.201 43.3832 46.7059 43.4136 47.3327V47.3937L43.4266 47.4241C43.3963 48.0357 43.186 48.5406 42.7894 48.9389C42.3798 49.3524 41.8921 49.5504 41.2853 49.5504H37.7265L36.1768 49.5352C35.8106 49.5352 35.492 49.6592 35.2059 49.903H35.1734L35.0368 50.0553C34.7637 50.3622 34.6272 50.7126 34.6272 51.1109V58.5605C34.6272 58.974 34.7767 59.3548 35.0823 59.6486C35.3879 59.9381 35.7521 60.0926 36.1617 60.0926C36.5713 60.0926 36.9506 59.9403 37.241 59.6486C37.5293 59.3592 37.6831 58.974 37.6831 58.5605V52.6582L41.2506 52.6278C42.9194 52.6278 44.2719 52.1076 45.245 51.0978C46.1878 50.0727 46.6559 48.8322 46.6256 47.3784C46.6559 46.4295 46.4435 45.5133 45.9884 44.6689L45.9559 44.6232L45.9255 44.5775L45.8475 44.4991C45.6048 44.0878 45.2862 43.72 44.9221 43.3979L44.8614 43.337C44.4973 42.9713 44.0725 42.6645 43.587 42.4512C43.0863 42.2357 42.447 42.1291 41.6277 42.116C41.554 42.1182 41.4478 42.1008 41.3394 42.1008Z" fill="white"/>
<path d="M90.8437 30C91.8796 30 92.7206 30.8466 92.7206 31.8891C92.7206 32.9381 91.8796 33.7847 90.835 33.7825C89.7968 33.7825 88.9624 32.9337 88.9624 31.876C88.9667 30.8444 89.8098 30 90.8437 30ZM90.8437 33.493C91.7344 33.4843 92.4345 32.7683 92.4301 31.8847C92.4236 30.9968 91.7019 30.2807 90.8285 30.2916C89.9485 30.3047 89.2398 31.0294 89.2572 31.913C89.2702 32.8009 89.9767 33.4865 90.8437 33.493Z" fill="#152739"/>
<path d="M90.5529 32.1807V32.616C90.5529 32.6922 90.4987 32.7553 90.4294 32.7596C90.3557 32.7683 90.2907 32.727 90.269 32.6573C90.2646 32.6421 90.2646 32.6247 90.2646 32.6095V31.1731C90.2646 31.0751 90.321 31.0186 90.4185 31.0186H90.8433C91.1012 31.0186 91.3288 31.1905 91.3982 31.4408C91.4697 31.6932 91.3635 31.9609 91.1424 32.098C91.1272 32.1067 91.1099 32.1154 91.0904 32.1263C91.1554 32.2134 91.2183 32.2982 91.2811 32.3809C91.3158 32.4266 91.3527 32.4767 91.3873 32.5224C91.4372 32.5942 91.4263 32.6791 91.3613 32.7313C91.2963 32.7814 91.2074 32.7683 91.1533 32.6965C91.0297 32.5376 90.9105 32.3722 90.7913 32.209C90.774 32.1872 90.7566 32.1742 90.7285 32.1785C90.6743 32.1829 90.6179 32.1807 90.5529 32.1807ZM90.5551 31.8913H90.8C90.8195 31.8913 90.8433 31.8913 90.8628 31.8891C91.0102 31.8739 91.1186 31.7629 91.1272 31.6149C91.1381 31.4843 91.0427 31.3407 90.9105 31.3211C90.7935 31.3037 90.6721 31.308 90.5529 31.3037C90.5551 31.5039 90.5551 31.6954 90.5551 31.8913Z" fill="#152739"/>
</g>
<defs>
<clipPath id="clip0_1_198">
<rect width="86" height="39" fill="white" transform="translate(7 30)"/>
</clipPath>
</defs>
</svg>
